<svg width="32" height="32" viewBox="0 0 32 32" fill="none" xmlns="http://www.w3.org/2000/svg">
  <defs>
    <linearGradient id="grad1" x1="0%" y1="0%" x2="100%" y2="100%">
      <stop offset="0%" style="stop-color:#3b82f6;stop-opacity:1" />
      <stop offset="100%" style="stop-color:#1d4ed8;stop-opacity:1" />
    </linearGradient>
    <linearGradient id="grad2" x1="0%" y1="0%" x2="100%" y2="100%">
      <stop offset="0%" style="stop-color:#60a5fa;stop-opacity:1" />
      <stop offset="100%" style="stop-color:#3b82f6;stop-opacity:1" />
    </linearGradient>
  </defs>
  
  <!-- Background circle -->
  <circle cx="16" cy="16" r="15" fill="url(#grad1)" stroke="#1e40af" stroke-width="2"/>
  
  <!-- Bitcoin-style symbol -->
  <g transform="translate(8, 6)">
    <!-- Vertical lines -->
    <rect x="5" y="0" width="1.5" height="4" fill="white"/>
    <rect x="9.5" y="0" width="1.5" height="4" fill="white"/>
    <rect x="5" y="16" width="1.5" height="4" fill="white"/>
    <rect x="9.5" y="16" width="1.5" height="4" fill="white"/>
    
    <!-- Main B shape -->
    <path d="M2 4 L2 16 L10 16 C12.5 16 14 14.5 14 12.5 C14 11.2 13.2 10.2 12 9.8 C12.8 9.4 13.2 8.5 13.2 7.5 C13.2 5.5 11.7 4 9.7 4 Z M4.5 6 L9 6 C10 6 10.5 6.5 10.5 7.5 C10.5 8.5 10 9 9 9 L4.5 9 Z M4.5 11 L9.5 11 C10.5 11 11 11.5 11 12.5 C11 13.5 10.5 14 9.5 14 L4.5 14 Z" fill="white"/>
  </g>
  
  <!-- Sparkle effects -->
  <circle cx="6" cy="8" r="1" fill="url(#grad2)" opacity="0.8"/>
  <circle cx="26" cy="24" r="1" fill="url(#grad2)" opacity="0.8"/>
  <circle cx="24" cy="6" r="0.5" fill="white" opacity="0.9"/>
  
  <!-- Chart-like elements -->
  <g opacity="0.6">
    <rect x="22" y="14" width="1" height="6" fill="white" rx="0.5"/>
    <rect x="24" y="12" width="1" height="8" fill="white" rx="0.5"/>
    <rect x="26" y="16" width="1" height="4" fill="white" rx="0.5"/>
  </g>
</svg>
